<mxfile host="www.draw.io" modified="2020-02-15T08:21:54.617Z" agent="Mozilla/5.0 (Macintosh; Intel Mac OS X 10_13_1) AppleWebKit/537.36 (KHTML, like Gecko) Chrome/80.0.3987.87 Safari/537.36" etag="wSk5vnCvm8Z0xZFEX8Cq" version="12.7.0" type="github">
  <diagram id="ioiaLDk05Nv48MyenRf3" name="第 1 页">
    <mxGraphModel dx="1186" dy="599" grid="1" gridSize="10" guides="1" tooltips="1" connect="1" arrows="1" fold="1" page="1" pageScale="1" pageWidth="3300" pageHeight="4681" math="0" shadow="0">
      <root>
        <mxCell id="0"/>
        <mxCell id="1" parent="0"/>
        <mxCell id="CsgqiDto-1mAxlndZmre-167" value="" style="edgeStyle=entityRelationEdgeStyle;fontSize=12;html=1;endArrow=ERzeroToMany;endFill=1;exitX=1;exitY=0.5;exitDx=0;exitDy=0;entryX=0;entryY=0.5;entryDx=0;entryDy=0;" edge="1" parent="1" source="CsgqiDto-1mAxlndZmre-169" target="CsgqiDto-1mAxlndZmre-291">
          <mxGeometry width="100" height="100" relative="1" as="geometry">
            <mxPoint x="490" y="1709" as="sourcePoint"/>
            <mxPoint x="580" y="1787" as="targetPoint"/>
          </mxGeometry>
        </mxCell>
        <mxCell id="CsgqiDto-1mAxlndZmre-168" value="one_user_info" style="swimlane;fontStyle=0;childLayout=stackLayout;horizontal=1;startSize=26;fillColor=#e0e0e0;horizontalStack=0;resizeParent=1;resizeParentMax=0;resizeLast=0;collapsible=1;marginBottom=0;swimlaneFillColor=#ffffff;align=center;fontSize=14;" vertex="1" parent="1">
          <mxGeometry x="315" y="1660" width="165" height="416" as="geometry"/>
        </mxCell>
        <mxCell id="CsgqiDto-1mAxlndZmre-169" value="id" style="shape=partialRectangle;top=0;left=0;right=0;bottom=1;align=left;verticalAlign=top;fillColor=none;spacingLeft=34;spacingRight=4;overflow=hidden;rotatable=0;points=[[0,0.5],[1,0.5]];portConstraint=eastwest;dropTarget=0;fontSize=12;" vertex="1" parent="CsgqiDto-1mAxlndZmre-168">
          <mxGeometry y="26" width="165" height="26" as="geometry"/>
        </mxCell>
        <mxCell id="CsgqiDto-1mAxlndZmre-170" value="PK" style="shape=partialRectangle;top=0;left=0;bottom=0;fillColor=none;align=left;verticalAlign=top;spacingLeft=4;spacingRight=4;overflow=hidden;rotatable=0;points=[];portConstraint=eastwest;part=1;fontSize=12;" vertex="1" connectable="0" parent="CsgqiDto-1mAxlndZmre-169">
          <mxGeometry width="30" height="26" as="geometry"/>
        </mxCell>
        <mxCell id="CsgqiDto-1mAxlndZmre-171" value="gmt_create" style="shape=partialRectangle;top=0;left=0;right=0;bottom=0;align=left;verticalAlign=top;fillColor=none;spacingLeft=34;spacingRight=4;overflow=hidden;rotatable=0;points=[[0,0.5],[1,0.5]];portConstraint=eastwest;dropTarget=0;fontSize=12;" vertex="1" parent="CsgqiDto-1mAxlndZmre-168">
          <mxGeometry y="52" width="165" height="26" as="geometry"/>
        </mxCell>
        <mxCell id="CsgqiDto-1mAxlndZmre-172" value="" style="shape=partialRectangle;top=0;left=0;bottom=0;fillColor=none;align=left;verticalAlign=top;spacingLeft=4;spacingRight=4;overflow=hidden;rotatable=0;points=[];portConstraint=eastwest;part=1;fontSize=12;" vertex="1" connectable="0" parent="CsgqiDto-1mAxlndZmre-171">
          <mxGeometry width="30" height="26" as="geometry"/>
        </mxCell>
        <mxCell id="CsgqiDto-1mAxlndZmre-173" value="gmt_modified" style="shape=partialRectangle;top=0;left=0;right=0;bottom=0;align=left;verticalAlign=top;fillColor=none;spacingLeft=34;spacingRight=4;overflow=hidden;rotatable=0;points=[[0,0.5],[1,0.5]];portConstraint=eastwest;dropTarget=0;fontSize=12;" vertex="1" parent="CsgqiDto-1mAxlndZmre-168">
          <mxGeometry y="78" width="165" height="26" as="geometry"/>
        </mxCell>
        <mxCell id="CsgqiDto-1mAxlndZmre-174" value="" style="shape=partialRectangle;top=0;left=0;bottom=0;fillColor=none;align=left;verticalAlign=top;spacingLeft=4;spacingRight=4;overflow=hidden;rotatable=0;points=[];portConstraint=eastwest;part=1;fontSize=12;" vertex="1" connectable="0" parent="CsgqiDto-1mAxlndZmre-173">
          <mxGeometry width="30" height="26" as="geometry"/>
        </mxCell>
        <mxCell id="CsgqiDto-1mAxlndZmre-175" value="name" style="shape=partialRectangle;top=0;left=0;right=0;bottom=0;align=left;verticalAlign=top;fillColor=none;spacingLeft=34;spacingRight=4;overflow=hidden;rotatable=0;points=[[0,0.5],[1,0.5]];portConstraint=eastwest;dropTarget=0;fontSize=12;" vertex="1" parent="CsgqiDto-1mAxlndZmre-168">
          <mxGeometry y="104" width="165" height="26" as="geometry"/>
        </mxCell>
        <mxCell id="CsgqiDto-1mAxlndZmre-176" value="" style="shape=partialRectangle;top=0;left=0;bottom=0;fillColor=none;align=left;verticalAlign=top;spacingLeft=4;spacingRight=4;overflow=hidden;rotatable=0;points=[];portConstraint=eastwest;part=1;fontSize=12;" vertex="1" connectable="0" parent="CsgqiDto-1mAxlndZmre-175">
          <mxGeometry width="30" height="26" as="geometry"/>
        </mxCell>
        <mxCell id="CsgqiDto-1mAxlndZmre-177" value="nice_name" style="shape=partialRectangle;top=0;left=0;right=0;bottom=0;align=left;verticalAlign=top;fillColor=none;spacingLeft=34;spacingRight=4;overflow=hidden;rotatable=0;points=[[0,0.5],[1,0.5]];portConstraint=eastwest;dropTarget=0;fontSize=12;" vertex="1" parent="CsgqiDto-1mAxlndZmre-168">
          <mxGeometry y="130" width="165" height="26" as="geometry"/>
        </mxCell>
        <mxCell id="CsgqiDto-1mAxlndZmre-178" value="" style="shape=partialRectangle;top=0;left=0;bottom=0;fillColor=none;align=left;verticalAlign=top;spacingLeft=4;spacingRight=4;overflow=hidden;rotatable=0;points=[];portConstraint=eastwest;part=1;fontSize=12;" vertex="1" connectable="0" parent="CsgqiDto-1mAxlndZmre-177">
          <mxGeometry width="30" height="26" as="geometry"/>
        </mxCell>
        <mxCell id="CsgqiDto-1mAxlndZmre-179" value="mobile_number" style="shape=partialRectangle;top=0;left=0;right=0;bottom=0;align=left;verticalAlign=top;fillColor=none;spacingLeft=34;spacingRight=4;overflow=hidden;rotatable=0;points=[[0,0.5],[1,0.5]];portConstraint=eastwest;dropTarget=0;fontSize=12;" vertex="1" parent="CsgqiDto-1mAxlndZmre-168">
          <mxGeometry y="156" width="165" height="26" as="geometry"/>
        </mxCell>
        <mxCell id="CsgqiDto-1mAxlndZmre-180" value="" style="shape=partialRectangle;top=0;left=0;bottom=0;fillColor=none;align=left;verticalAlign=top;spacingLeft=4;spacingRight=4;overflow=hidden;rotatable=0;points=[];portConstraint=eastwest;part=1;fontSize=12;" vertex="1" connectable="0" parent="CsgqiDto-1mAxlndZmre-179">
          <mxGeometry width="30" height="26" as="geometry"/>
        </mxCell>
        <mxCell id="CsgqiDto-1mAxlndZmre-181" value="wx_code" style="shape=partialRectangle;top=0;left=0;right=0;bottom=0;align=left;verticalAlign=top;fillColor=none;spacingLeft=34;spacingRight=4;overflow=hidden;rotatable=0;points=[[0,0.5],[1,0.5]];portConstraint=eastwest;dropTarget=0;fontSize=12;" vertex="1" parent="CsgqiDto-1mAxlndZmre-168">
          <mxGeometry y="182" width="165" height="26" as="geometry"/>
        </mxCell>
        <mxCell id="CsgqiDto-1mAxlndZmre-182" value="" style="shape=partialRectangle;top=0;left=0;bottom=0;fillColor=none;align=left;verticalAlign=top;spacingLeft=4;spacingRight=4;overflow=hidden;rotatable=0;points=[];portConstraint=eastwest;part=1;fontSize=12;" vertex="1" connectable="0" parent="CsgqiDto-1mAxlndZmre-181">
          <mxGeometry width="30" height="26" as="geometry"/>
        </mxCell>
        <mxCell id="CsgqiDto-1mAxlndZmre-183" value="gmt_modified" style="shape=partialRectangle;top=0;left=0;right=0;bottom=0;align=left;verticalAlign=top;fillColor=none;spacingLeft=34;spacingRight=4;overflow=hidden;rotatable=0;points=[[0,0.5],[1,0.5]];portConstraint=eastwest;dropTarget=0;fontSize=12;" vertex="1" parent="CsgqiDto-1mAxlndZmre-168">
          <mxGeometry y="208" width="165" height="26" as="geometry"/>
        </mxCell>
        <mxCell id="CsgqiDto-1mAxlndZmre-184" value="" style="shape=partialRectangle;top=0;left=0;bottom=0;fillColor=none;align=left;verticalAlign=top;spacingLeft=4;spacingRight=4;overflow=hidden;rotatable=0;points=[];portConstraint=eastwest;part=1;fontSize=12;" vertex="1" connectable="0" parent="CsgqiDto-1mAxlndZmre-183">
          <mxGeometry width="30" height="26" as="geometry"/>
        </mxCell>
        <mxCell id="CsgqiDto-1mAxlndZmre-185" value="hometown_id" style="shape=partialRectangle;top=0;left=0;right=0;bottom=0;align=left;verticalAlign=top;fillColor=none;spacingLeft=34;spacingRight=4;overflow=hidden;rotatable=0;points=[[0,0.5],[1,0.5]];portConstraint=eastwest;dropTarget=0;fontSize=12;" vertex="1" parent="CsgqiDto-1mAxlndZmre-168">
          <mxGeometry y="234" width="165" height="26" as="geometry"/>
        </mxCell>
        <mxCell id="CsgqiDto-1mAxlndZmre-186" value="FK" style="shape=partialRectangle;top=0;left=0;bottom=0;fillColor=none;align=left;verticalAlign=top;spacingLeft=4;spacingRight=4;overflow=hidden;rotatable=0;points=[];portConstraint=eastwest;part=1;fontSize=12;" vertex="1" connectable="0" parent="CsgqiDto-1mAxlndZmre-185">
          <mxGeometry width="30" height="26" as="geometry"/>
        </mxCell>
        <mxCell id="CsgqiDto-1mAxlndZmre-187" value="hometown_name" style="shape=partialRectangle;top=0;left=0;right=0;bottom=0;align=left;verticalAlign=top;fillColor=none;spacingLeft=34;spacingRight=4;overflow=hidden;rotatable=0;points=[[0,0.5],[1,0.5]];portConstraint=eastwest;dropTarget=0;fontSize=12;" vertex="1" parent="CsgqiDto-1mAxlndZmre-168">
          <mxGeometry y="260" width="165" height="26" as="geometry"/>
        </mxCell>
        <mxCell id="CsgqiDto-1mAxlndZmre-188" value="" style="shape=partialRectangle;top=0;left=0;bottom=0;fillColor=none;align=left;verticalAlign=top;spacingLeft=4;spacingRight=4;overflow=hidden;rotatable=0;points=[];portConstraint=eastwest;part=1;fontSize=12;" vertex="1" connectable="0" parent="CsgqiDto-1mAxlndZmre-187">
          <mxGeometry width="30" height="26" as="geometry"/>
        </mxCell>
        <mxCell id="CsgqiDto-1mAxlndZmre-189" value="workcity_id" style="shape=partialRectangle;top=0;left=0;right=0;bottom=0;align=left;verticalAlign=top;fillColor=none;spacingLeft=34;spacingRight=4;overflow=hidden;rotatable=0;points=[[0,0.5],[1,0.5]];portConstraint=eastwest;dropTarget=0;fontSize=12;" vertex="1" parent="CsgqiDto-1mAxlndZmre-168">
          <mxGeometry y="286" width="165" height="26" as="geometry"/>
        </mxCell>
        <mxCell id="CsgqiDto-1mAxlndZmre-190" value="FK" style="shape=partialRectangle;top=0;left=0;bottom=0;fillColor=none;align=left;verticalAlign=top;spacingLeft=4;spacingRight=4;overflow=hidden;rotatable=0;points=[];portConstraint=eastwest;part=1;fontSize=12;" vertex="1" connectable="0" parent="CsgqiDto-1mAxlndZmre-189">
          <mxGeometry width="30" height="26" as="geometry"/>
        </mxCell>
        <mxCell id="CsgqiDto-1mAxlndZmre-191" value="workcity_name" style="shape=partialRectangle;top=0;left=0;right=0;bottom=0;align=left;verticalAlign=top;fillColor=none;spacingLeft=34;spacingRight=4;overflow=hidden;rotatable=0;points=[[0,0.5],[1,0.5]];portConstraint=eastwest;dropTarget=0;fontSize=12;" vertex="1" parent="CsgqiDto-1mAxlndZmre-168">
          <mxGeometry y="312" width="165" height="26" as="geometry"/>
        </mxCell>
        <mxCell id="CsgqiDto-1mAxlndZmre-192" value="" style="shape=partialRectangle;top=0;left=0;bottom=0;fillColor=none;align=left;verticalAlign=top;spacingLeft=4;spacingRight=4;overflow=hidden;rotatable=0;points=[];portConstraint=eastwest;part=1;fontSize=12;" vertex="1" connectable="0" parent="CsgqiDto-1mAxlndZmre-191">
          <mxGeometry width="30" height="26" as="geometry"/>
        </mxCell>
        <mxCell id="CsgqiDto-1mAxlndZmre-193" value="head_img" style="shape=partialRectangle;top=0;left=0;right=0;bottom=0;align=left;verticalAlign=top;fillColor=none;spacingLeft=34;spacingRight=4;overflow=hidden;rotatable=0;points=[[0,0.5],[1,0.5]];portConstraint=eastwest;dropTarget=0;fontSize=12;" vertex="1" parent="CsgqiDto-1mAxlndZmre-168">
          <mxGeometry y="338" width="165" height="26" as="geometry"/>
        </mxCell>
        <mxCell id="CsgqiDto-1mAxlndZmre-194" value="" style="shape=partialRectangle;top=0;left=0;bottom=0;fillColor=none;align=left;verticalAlign=top;spacingLeft=4;spacingRight=4;overflow=hidden;rotatable=0;points=[];portConstraint=eastwest;part=1;fontSize=12;" vertex="1" connectable="0" parent="CsgqiDto-1mAxlndZmre-193">
          <mxGeometry width="30" height="26" as="geometry"/>
        </mxCell>
        <mxCell id="CsgqiDto-1mAxlndZmre-195" value="user_type" style="shape=partialRectangle;top=0;left=0;right=0;bottom=0;align=left;verticalAlign=top;fillColor=none;spacingLeft=34;spacingRight=4;overflow=hidden;rotatable=0;points=[[0,0.5],[1,0.5]];portConstraint=eastwest;dropTarget=0;fontSize=12;" vertex="1" parent="CsgqiDto-1mAxlndZmre-168">
          <mxGeometry y="364" width="165" height="26" as="geometry"/>
        </mxCell>
        <mxCell id="CsgqiDto-1mAxlndZmre-196" value="" style="shape=partialRectangle;top=0;left=0;bottom=0;fillColor=none;align=left;verticalAlign=top;spacingLeft=4;spacingRight=4;overflow=hidden;rotatable=0;points=[];portConstraint=eastwest;part=1;fontSize=12;" vertex="1" connectable="0" parent="CsgqiDto-1mAxlndZmre-195">
          <mxGeometry width="30" height="26" as="geometry"/>
        </mxCell>
        <mxCell id="CsgqiDto-1mAxlndZmre-197" value="status" style="shape=partialRectangle;top=0;left=0;right=0;bottom=0;align=left;verticalAlign=top;fillColor=none;spacingLeft=34;spacingRight=4;overflow=hidden;rotatable=0;points=[[0,0.5],[1,0.5]];portConstraint=eastwest;dropTarget=0;fontSize=12;" vertex="1" parent="CsgqiDto-1mAxlndZmre-168">
          <mxGeometry y="390" width="165" height="26" as="geometry"/>
        </mxCell>
        <mxCell id="CsgqiDto-1mAxlndZmre-198" value="" style="shape=partialRectangle;top=0;left=0;bottom=0;fillColor=none;align=left;verticalAlign=top;spacingLeft=4;spacingRight=4;overflow=hidden;rotatable=0;points=[];portConstraint=eastwest;part=1;fontSize=12;" vertex="1" connectable="0" parent="CsgqiDto-1mAxlndZmre-197">
          <mxGeometry width="30" height="26" as="geometry"/>
        </mxCell>
        <mxCell id="CsgqiDto-1mAxlndZmre-199" value="one_district" style="swimlane;fontStyle=0;childLayout=stackLayout;horizontal=1;startSize=26;fillColor=#e0e0e0;horizontalStack=0;resizeParent=1;resizeParentMax=0;resizeLast=0;collapsible=1;marginBottom=0;swimlaneFillColor=#ffffff;align=center;fontSize=14;" vertex="1" parent="1">
          <mxGeometry x="82.5" y="1660" width="165" height="208" as="geometry"/>
        </mxCell>
        <mxCell id="CsgqiDto-1mAxlndZmre-200" value="id" style="shape=partialRectangle;top=0;left=0;right=0;bottom=1;align=left;verticalAlign=top;fillColor=none;spacingLeft=34;spacingRight=4;overflow=hidden;rotatable=0;points=[[0,0.5],[1,0.5]];portConstraint=eastwest;dropTarget=0;fontSize=12;" vertex="1" parent="CsgqiDto-1mAxlndZmre-199">
          <mxGeometry y="26" width="165" height="26" as="geometry"/>
        </mxCell>
        <mxCell id="CsgqiDto-1mAxlndZmre-201" value="PK" style="shape=partialRectangle;top=0;left=0;bottom=0;fillColor=none;align=left;verticalAlign=top;spacingLeft=4;spacingRight=4;overflow=hidden;rotatable=0;points=[];portConstraint=eastwest;part=1;fontSize=12;" vertex="1" connectable="0" parent="CsgqiDto-1mAxlndZmre-200">
          <mxGeometry width="30" height="26" as="geometry"/>
        </mxCell>
        <mxCell id="CsgqiDto-1mAxlndZmre-202" value="gmt_create" style="shape=partialRectangle;top=0;left=0;right=0;bottom=0;align=left;verticalAlign=top;fillColor=none;spacingLeft=34;spacingRight=4;overflow=hidden;rotatable=0;points=[[0,0.5],[1,0.5]];portConstraint=eastwest;dropTarget=0;fontSize=12;" vertex="1" parent="CsgqiDto-1mAxlndZmre-199">
          <mxGeometry y="52" width="165" height="26" as="geometry"/>
        </mxCell>
        <mxCell id="CsgqiDto-1mAxlndZmre-203" value="" style="shape=partialRectangle;top=0;left=0;bottom=0;fillColor=none;align=left;verticalAlign=top;spacingLeft=4;spacingRight=4;overflow=hidden;rotatable=0;points=[];portConstraint=eastwest;part=1;fontSize=12;" vertex="1" connectable="0" parent="CsgqiDto-1mAxlndZmre-202">
          <mxGeometry width="30" height="26" as="geometry"/>
        </mxCell>
        <mxCell id="CsgqiDto-1mAxlndZmre-204" value="gmt_modified" style="shape=partialRectangle;top=0;left=0;right=0;bottom=0;align=left;verticalAlign=top;fillColor=none;spacingLeft=34;spacingRight=4;overflow=hidden;rotatable=0;points=[[0,0.5],[1,0.5]];portConstraint=eastwest;dropTarget=0;fontSize=12;" vertex="1" parent="CsgqiDto-1mAxlndZmre-199">
          <mxGeometry y="78" width="165" height="26" as="geometry"/>
        </mxCell>
        <mxCell id="CsgqiDto-1mAxlndZmre-205" value="" style="shape=partialRectangle;top=0;left=0;bottom=0;fillColor=none;align=left;verticalAlign=top;spacingLeft=4;spacingRight=4;overflow=hidden;rotatable=0;points=[];portConstraint=eastwest;part=1;fontSize=12;" vertex="1" connectable="0" parent="CsgqiDto-1mAxlndZmre-204">
          <mxGeometry width="30" height="26" as="geometry"/>
        </mxCell>
        <mxCell id="CsgqiDto-1mAxlndZmre-206" value="name" style="shape=partialRectangle;top=0;left=0;right=0;bottom=0;align=left;verticalAlign=top;fillColor=none;spacingLeft=34;spacingRight=4;overflow=hidden;rotatable=0;points=[[0,0.5],[1,0.5]];portConstraint=eastwest;dropTarget=0;fontSize=12;" vertex="1" parent="CsgqiDto-1mAxlndZmre-199">
          <mxGeometry y="104" width="165" height="26" as="geometry"/>
        </mxCell>
        <mxCell id="CsgqiDto-1mAxlndZmre-207" value="" style="shape=partialRectangle;top=0;left=0;bottom=0;fillColor=none;align=left;verticalAlign=top;spacingLeft=4;spacingRight=4;overflow=hidden;rotatable=0;points=[];portConstraint=eastwest;part=1;fontSize=12;" vertex="1" connectable="0" parent="CsgqiDto-1mAxlndZmre-206">
          <mxGeometry width="30" height="26" as="geometry"/>
        </mxCell>
        <mxCell id="CsgqiDto-1mAxlndZmre-208" value="code" style="shape=partialRectangle;top=0;left=0;right=0;bottom=0;align=left;verticalAlign=top;fillColor=none;spacingLeft=34;spacingRight=4;overflow=hidden;rotatable=0;points=[[0,0.5],[1,0.5]];portConstraint=eastwest;dropTarget=0;fontSize=12;" vertex="1" parent="CsgqiDto-1mAxlndZmre-199">
          <mxGeometry y="130" width="165" height="26" as="geometry"/>
        </mxCell>
        <mxCell id="CsgqiDto-1mAxlndZmre-209" value="" style="shape=partialRectangle;top=0;left=0;bottom=0;fillColor=none;align=left;verticalAlign=top;spacingLeft=4;spacingRight=4;overflow=hidden;rotatable=0;points=[];portConstraint=eastwest;part=1;fontSize=12;" vertex="1" connectable="0" parent="CsgqiDto-1mAxlndZmre-208">
          <mxGeometry width="30" height="26" as="geometry"/>
        </mxCell>
        <mxCell id="CsgqiDto-1mAxlndZmre-210" value="parent_id" style="shape=partialRectangle;top=0;left=0;right=0;bottom=0;align=left;verticalAlign=top;fillColor=none;spacingLeft=34;spacingRight=4;overflow=hidden;rotatable=0;points=[[0,0.5],[1,0.5]];portConstraint=eastwest;dropTarget=0;fontSize=12;" vertex="1" parent="CsgqiDto-1mAxlndZmre-199">
          <mxGeometry y="156" width="165" height="26" as="geometry"/>
        </mxCell>
        <mxCell id="CsgqiDto-1mAxlndZmre-211" value="" style="shape=partialRectangle;top=0;left=0;bottom=0;fillColor=none;align=left;verticalAlign=top;spacingLeft=4;spacingRight=4;overflow=hidden;rotatable=0;points=[];portConstraint=eastwest;part=1;fontSize=12;" vertex="1" connectable="0" parent="CsgqiDto-1mAxlndZmre-210">
          <mxGeometry width="30" height="26" as="geometry"/>
        </mxCell>
        <mxCell id="CsgqiDto-1mAxlndZmre-212" value="status" style="shape=partialRectangle;top=0;left=0;right=0;bottom=0;align=left;verticalAlign=top;fillColor=none;spacingLeft=34;spacingRight=4;overflow=hidden;rotatable=0;points=[[0,0.5],[1,0.5]];portConstraint=eastwest;dropTarget=0;fontSize=12;" vertex="1" parent="CsgqiDto-1mAxlndZmre-199">
          <mxGeometry y="182" width="165" height="26" as="geometry"/>
        </mxCell>
        <mxCell id="CsgqiDto-1mAxlndZmre-213" value="" style="shape=partialRectangle;top=0;left=0;bottom=0;fillColor=none;align=left;verticalAlign=top;spacingLeft=4;spacingRight=4;overflow=hidden;rotatable=0;points=[];portConstraint=eastwest;part=1;fontSize=12;" vertex="1" connectable="0" parent="CsgqiDto-1mAxlndZmre-212">
          <mxGeometry width="30" height="26" as="geometry"/>
        </mxCell>
        <mxCell id="CsgqiDto-1mAxlndZmre-214" value="" style="edgeStyle=entityRelationEdgeStyle;fontSize=12;html=1;endArrow=ERzeroToMany;endFill=1;exitX=1;exitY=0.5;exitDx=0;exitDy=0;" edge="1" parent="1" source="CsgqiDto-1mAxlndZmre-200" target="CsgqiDto-1mAxlndZmre-185">
          <mxGeometry width="100" height="100" relative="1" as="geometry">
            <mxPoint x="160" y="2080" as="sourcePoint"/>
            <mxPoint x="260" y="1980" as="targetPoint"/>
          </mxGeometry>
        </mxCell>
        <mxCell id="CsgqiDto-1mAxlndZmre-215" value="" style="edgeStyle=entityRelationEdgeStyle;fontSize=12;html=1;endArrow=ERzeroToMany;endFill=1;exitX=1;exitY=0.5;exitDx=0;exitDy=0;entryX=0;entryY=0.5;entryDx=0;entryDy=0;" edge="1" parent="1" source="CsgqiDto-1mAxlndZmre-200" target="CsgqiDto-1mAxlndZmre-189">
          <mxGeometry width="100" height="100" relative="1" as="geometry">
            <mxPoint x="257.5" y="1709" as="sourcePoint"/>
            <mxPoint x="325" y="1917" as="targetPoint"/>
          </mxGeometry>
        </mxCell>
        <mxCell id="CsgqiDto-1mAxlndZmre-216" value="one_user_login" style="swimlane;fontStyle=0;childLayout=stackLayout;horizontal=1;startSize=26;fillColor=#e0e0e0;horizontalStack=0;resizeParent=1;resizeParentMax=0;resizeLast=0;collapsible=1;marginBottom=0;swimlaneFillColor=#ffffff;align=center;fontSize=14;" vertex="1" parent="1">
          <mxGeometry x="82.5" y="1408" width="165" height="182" as="geometry"/>
        </mxCell>
        <mxCell id="CsgqiDto-1mAxlndZmre-217" value="id" style="shape=partialRectangle;top=0;left=0;right=0;bottom=1;align=left;verticalAlign=top;fillColor=none;spacingLeft=34;spacingRight=4;overflow=hidden;rotatable=0;points=[[0,0.5],[1,0.5]];portConstraint=eastwest;dropTarget=0;fontSize=12;" vertex="1" parent="CsgqiDto-1mAxlndZmre-216">
          <mxGeometry y="26" width="165" height="26" as="geometry"/>
        </mxCell>
        <mxCell id="CsgqiDto-1mAxlndZmre-218" value="PK" style="shape=partialRectangle;top=0;left=0;bottom=0;fillColor=none;align=left;verticalAlign=top;spacingLeft=4;spacingRight=4;overflow=hidden;rotatable=0;points=[];portConstraint=eastwest;part=1;fontSize=12;" vertex="1" connectable="0" parent="CsgqiDto-1mAxlndZmre-217">
          <mxGeometry width="30" height="26" as="geometry"/>
        </mxCell>
        <mxCell id="CsgqiDto-1mAxlndZmre-219" value="gmt_create" style="shape=partialRectangle;top=0;left=0;right=0;bottom=0;align=left;verticalAlign=top;fillColor=none;spacingLeft=34;spacingRight=4;overflow=hidden;rotatable=0;points=[[0,0.5],[1,0.5]];portConstraint=eastwest;dropTarget=0;fontSize=12;" vertex="1" parent="CsgqiDto-1mAxlndZmre-216">
          <mxGeometry y="52" width="165" height="26" as="geometry"/>
        </mxCell>
        <mxCell id="CsgqiDto-1mAxlndZmre-220" value="" style="shape=partialRectangle;top=0;left=0;bottom=0;fillColor=none;align=left;verticalAlign=top;spacingLeft=4;spacingRight=4;overflow=hidden;rotatable=0;points=[];portConstraint=eastwest;part=1;fontSize=12;" vertex="1" connectable="0" parent="CsgqiDto-1mAxlndZmre-219">
          <mxGeometry width="30" height="26" as="geometry"/>
        </mxCell>
        <mxCell id="CsgqiDto-1mAxlndZmre-221" value="gmt_modified" style="shape=partialRectangle;top=0;left=0;right=0;bottom=0;align=left;verticalAlign=top;fillColor=none;spacingLeft=34;spacingRight=4;overflow=hidden;rotatable=0;points=[[0,0.5],[1,0.5]];portConstraint=eastwest;dropTarget=0;fontSize=12;" vertex="1" parent="CsgqiDto-1mAxlndZmre-216">
          <mxGeometry y="78" width="165" height="26" as="geometry"/>
        </mxCell>
        <mxCell id="CsgqiDto-1mAxlndZmre-222" value="" style="shape=partialRectangle;top=0;left=0;bottom=0;fillColor=none;align=left;verticalAlign=top;spacingLeft=4;spacingRight=4;overflow=hidden;rotatable=0;points=[];portConstraint=eastwest;part=1;fontSize=12;" vertex="1" connectable="0" parent="CsgqiDto-1mAxlndZmre-221">
          <mxGeometry width="30" height="26" as="geometry"/>
        </mxCell>
        <mxCell id="CsgqiDto-1mAxlndZmre-223" value="user_id" style="shape=partialRectangle;top=0;left=0;right=0;bottom=0;align=left;verticalAlign=top;fillColor=none;spacingLeft=34;spacingRight=4;overflow=hidden;rotatable=0;points=[[0,0.5],[1,0.5]];portConstraint=eastwest;dropTarget=0;fontSize=12;" vertex="1" parent="CsgqiDto-1mAxlndZmre-216">
          <mxGeometry y="104" width="165" height="26" as="geometry"/>
        </mxCell>
        <mxCell id="CsgqiDto-1mAxlndZmre-224" value="FK" style="shape=partialRectangle;top=0;left=0;bottom=0;fillColor=none;align=left;verticalAlign=top;spacingLeft=4;spacingRight=4;overflow=hidden;rotatable=0;points=[];portConstraint=eastwest;part=1;fontSize=12;" vertex="1" connectable="0" parent="CsgqiDto-1mAxlndZmre-223">
          <mxGeometry width="30" height="26" as="geometry"/>
        </mxCell>
        <mxCell id="CsgqiDto-1mAxlndZmre-225" value="status" style="shape=partialRectangle;top=0;left=0;right=0;bottom=0;align=left;verticalAlign=top;fillColor=none;spacingLeft=34;spacingRight=4;overflow=hidden;rotatable=0;points=[[0,0.5],[1,0.5]];portConstraint=eastwest;dropTarget=0;fontSize=12;" vertex="1" parent="CsgqiDto-1mAxlndZmre-216">
          <mxGeometry y="130" width="165" height="26" as="geometry"/>
        </mxCell>
        <mxCell id="CsgqiDto-1mAxlndZmre-226" value="" style="shape=partialRectangle;top=0;left=0;bottom=0;fillColor=none;align=left;verticalAlign=top;spacingLeft=4;spacingRight=4;overflow=hidden;rotatable=0;points=[];portConstraint=eastwest;part=1;fontSize=12;" vertex="1" connectable="0" parent="CsgqiDto-1mAxlndZmre-225">
          <mxGeometry width="30" height="26" as="geometry"/>
        </mxCell>
        <mxCell id="CsgqiDto-1mAxlndZmre-227" value="info" style="shape=partialRectangle;top=0;left=0;right=0;bottom=0;align=left;verticalAlign=top;fillColor=none;spacingLeft=34;spacingRight=4;overflow=hidden;rotatable=0;points=[[0,0.5],[1,0.5]];portConstraint=eastwest;dropTarget=0;fontSize=12;" vertex="1" parent="CsgqiDto-1mAxlndZmre-216">
          <mxGeometry y="156" width="165" height="26" as="geometry"/>
        </mxCell>
        <mxCell id="CsgqiDto-1mAxlndZmre-228" value="" style="shape=partialRectangle;top=0;left=0;bottom=0;fillColor=none;align=left;verticalAlign=top;spacingLeft=4;spacingRight=4;overflow=hidden;rotatable=0;points=[];portConstraint=eastwest;part=1;fontSize=12;" vertex="1" connectable="0" parent="CsgqiDto-1mAxlndZmre-227">
          <mxGeometry width="30" height="26" as="geometry"/>
        </mxCell>
        <mxCell id="CsgqiDto-1mAxlndZmre-229" value="" style="edgeStyle=entityRelationEdgeStyle;fontSize=12;html=1;endArrow=ERzeroToMany;endFill=1;" edge="1" parent="1" source="CsgqiDto-1mAxlndZmre-169" target="CsgqiDto-1mAxlndZmre-223">
          <mxGeometry width="100" height="100" relative="1" as="geometry">
            <mxPoint x="257.5" y="1709" as="sourcePoint"/>
            <mxPoint x="325" y="1969" as="targetPoint"/>
          </mxGeometry>
        </mxCell>
        <mxCell id="CsgqiDto-1mAxlndZmre-230" value="one_moment_info" style="swimlane;fontStyle=0;childLayout=stackLayout;horizontal=1;startSize=26;fillColor=#e0e0e0;horizontalStack=0;resizeParent=1;resizeParentMax=0;resizeLast=0;collapsible=1;marginBottom=0;swimlaneFillColor=#ffffff;align=center;fontSize=14;" vertex="1" parent="1">
          <mxGeometry x="570" y="1660" width="165" height="702" as="geometry"/>
        </mxCell>
        <mxCell id="CsgqiDto-1mAxlndZmre-231" value="id" style="shape=partialRectangle;top=0;left=0;right=0;bottom=1;align=left;verticalAlign=top;fillColor=none;spacingLeft=34;spacingRight=4;overflow=hidden;rotatable=0;points=[[0,0.5],[1,0.5]];portConstraint=eastwest;dropTarget=0;fontSize=12;" vertex="1" parent="CsgqiDto-1mAxlndZmre-230">
          <mxGeometry y="26" width="165" height="26" as="geometry"/>
        </mxCell>
        <mxCell id="CsgqiDto-1mAxlndZmre-232" value="PK" style="shape=partialRectangle;top=0;left=0;bottom=0;fillColor=none;align=left;verticalAlign=top;spacingLeft=4;spacingRight=4;overflow=hidden;rotatable=0;points=[];portConstraint=eastwest;part=1;fontSize=12;" vertex="1" connectable="0" parent="CsgqiDto-1mAxlndZmre-231">
          <mxGeometry width="30" height="26" as="geometry"/>
        </mxCell>
        <mxCell id="CsgqiDto-1mAxlndZmre-233" value="gmt_create" style="shape=partialRectangle;top=0;left=0;right=0;bottom=0;align=left;verticalAlign=top;fillColor=none;spacingLeft=34;spacingRight=4;overflow=hidden;rotatable=0;points=[[0,0.5],[1,0.5]];portConstraint=eastwest;dropTarget=0;fontSize=12;" vertex="1" parent="CsgqiDto-1mAxlndZmre-230">
          <mxGeometry y="52" width="165" height="26" as="geometry"/>
        </mxCell>
        <mxCell id="CsgqiDto-1mAxlndZmre-234" value="" style="shape=partialRectangle;top=0;left=0;bottom=0;fillColor=none;align=left;verticalAlign=top;spacingLeft=4;spacingRight=4;overflow=hidden;rotatable=0;points=[];portConstraint=eastwest;part=1;fontSize=12;" vertex="1" connectable="0" parent="CsgqiDto-1mAxlndZmre-233">
          <mxGeometry width="30" height="26" as="geometry"/>
        </mxCell>
        <mxCell id="CsgqiDto-1mAxlndZmre-235" value="gmt_modified" style="shape=partialRectangle;top=0;left=0;right=0;bottom=0;align=left;verticalAlign=top;fillColor=none;spacingLeft=34;spacingRight=4;overflow=hidden;rotatable=0;points=[[0,0.5],[1,0.5]];portConstraint=eastwest;dropTarget=0;fontSize=12;" vertex="1" parent="CsgqiDto-1mAxlndZmre-230">
          <mxGeometry y="78" width="165" height="26" as="geometry"/>
        </mxCell>
        <mxCell id="CsgqiDto-1mAxlndZmre-236" value="" style="shape=partialRectangle;top=0;left=0;bottom=0;fillColor=none;align=left;verticalAlign=top;spacingLeft=4;spacingRight=4;overflow=hidden;rotatable=0;points=[];portConstraint=eastwest;part=1;fontSize=12;" vertex="1" connectable="0" parent="CsgqiDto-1mAxlndZmre-235">
          <mxGeometry width="30" height="26" as="geometry"/>
        </mxCell>
        <mxCell id="CsgqiDto-1mAxlndZmre-237" value="user_id" style="shape=partialRectangle;top=0;left=0;right=0;bottom=0;align=left;verticalAlign=top;fillColor=none;spacingLeft=34;spacingRight=4;overflow=hidden;rotatable=0;points=[[0,0.5],[1,0.5]];portConstraint=eastwest;dropTarget=0;fontSize=12;" vertex="1" parent="CsgqiDto-1mAxlndZmre-230">
          <mxGeometry y="104" width="165" height="26" as="geometry"/>
        </mxCell>
        <mxCell id="CsgqiDto-1mAxlndZmre-238" value="FK" style="shape=partialRectangle;top=0;left=0;bottom=0;fillColor=none;align=left;verticalAlign=top;spacingLeft=4;spacingRight=4;overflow=hidden;rotatable=0;points=[];portConstraint=eastwest;part=1;fontSize=12;" vertex="1" connectable="0" parent="CsgqiDto-1mAxlndZmre-237">
          <mxGeometry width="30" height="26" as="geometry"/>
        </mxCell>
        <mxCell id="CsgqiDto-1mAxlndZmre-239" value="topic_id" style="shape=partialRectangle;top=0;left=0;right=0;bottom=0;align=left;verticalAlign=top;fillColor=none;spacingLeft=34;spacingRight=4;overflow=hidden;rotatable=0;points=[[0,0.5],[1,0.5]];portConstraint=eastwest;dropTarget=0;fontSize=12;" vertex="1" parent="CsgqiDto-1mAxlndZmre-230">
          <mxGeometry y="130" width="165" height="26" as="geometry"/>
        </mxCell>
        <mxCell id="CsgqiDto-1mAxlndZmre-240" value="FK" style="shape=partialRectangle;top=0;left=0;bottom=0;fillColor=none;align=left;verticalAlign=top;spacingLeft=4;spacingRight=4;overflow=hidden;rotatable=0;points=[];portConstraint=eastwest;part=1;fontSize=12;" vertex="1" connectable="0" parent="CsgqiDto-1mAxlndZmre-239">
          <mxGeometry width="30" height="26" as="geometry"/>
        </mxCell>
        <mxCell id="CsgqiDto-1mAxlndZmre-241" value="type" style="shape=partialRectangle;top=0;left=0;right=0;bottom=0;align=left;verticalAlign=top;fillColor=none;spacingLeft=34;spacingRight=4;overflow=hidden;rotatable=0;points=[[0,0.5],[1,0.5]];portConstraint=eastwest;dropTarget=0;fontSize=12;" vertex="1" parent="CsgqiDto-1mAxlndZmre-230">
          <mxGeometry y="156" width="165" height="26" as="geometry"/>
        </mxCell>
        <mxCell id="CsgqiDto-1mAxlndZmre-242" value="" style="shape=partialRectangle;top=0;left=0;bottom=0;fillColor=none;align=left;verticalAlign=top;spacingLeft=4;spacingRight=4;overflow=hidden;rotatable=0;points=[];portConstraint=eastwest;part=1;fontSize=12;" vertex="1" connectable="0" parent="CsgqiDto-1mAxlndZmre-241">
          <mxGeometry width="30" height="26" as="geometry"/>
        </mxCell>
        <mxCell id="CsgqiDto-1mAxlndZmre-243" value="title" style="shape=partialRectangle;top=0;left=0;right=0;bottom=0;align=left;verticalAlign=top;fillColor=none;spacingLeft=34;spacingRight=4;overflow=hidden;rotatable=0;points=[[0,0.5],[1,0.5]];portConstraint=eastwest;dropTarget=0;fontSize=12;" vertex="1" parent="CsgqiDto-1mAxlndZmre-230">
          <mxGeometry y="182" width="165" height="26" as="geometry"/>
        </mxCell>
        <mxCell id="CsgqiDto-1mAxlndZmre-244" value="" style="shape=partialRectangle;top=0;left=0;bottom=0;fillColor=none;align=left;verticalAlign=top;spacingLeft=4;spacingRight=4;overflow=hidden;rotatable=0;points=[];portConstraint=eastwest;part=1;fontSize=12;" vertex="1" connectable="0" parent="CsgqiDto-1mAxlndZmre-243">
          <mxGeometry width="30" height="26" as="geometry"/>
        </mxCell>
        <mxCell id="CsgqiDto-1mAxlndZmre-245" value="content" style="shape=partialRectangle;top=0;left=0;right=0;bottom=0;align=left;verticalAlign=top;fillColor=none;spacingLeft=34;spacingRight=4;overflow=hidden;rotatable=0;points=[[0,0.5],[1,0.5]];portConstraint=eastwest;dropTarget=0;fontSize=12;" vertex="1" parent="CsgqiDto-1mAxlndZmre-230">
          <mxGeometry y="208" width="165" height="26" as="geometry"/>
        </mxCell>
        <mxCell id="CsgqiDto-1mAxlndZmre-246" value="" style="shape=partialRectangle;top=0;left=0;bottom=0;fillColor=none;align=left;verticalAlign=top;spacingLeft=4;spacingRight=4;overflow=hidden;rotatable=0;points=[];portConstraint=eastwest;part=1;fontSize=12;" vertex="1" connectable="0" parent="CsgqiDto-1mAxlndZmre-245">
          <mxGeometry width="30" height="26" as="geometry"/>
        </mxCell>
        <mxCell id="CsgqiDto-1mAxlndZmre-247" value="image_01" style="shape=partialRectangle;top=0;left=0;right=0;bottom=0;align=left;verticalAlign=top;fillColor=none;spacingLeft=34;spacingRight=4;overflow=hidden;rotatable=0;points=[[0,0.5],[1,0.5]];portConstraint=eastwest;dropTarget=0;fontSize=12;" vertex="1" parent="CsgqiDto-1mAxlndZmre-230">
          <mxGeometry y="234" width="165" height="26" as="geometry"/>
        </mxCell>
        <mxCell id="CsgqiDto-1mAxlndZmre-248" value="" style="shape=partialRectangle;top=0;left=0;bottom=0;fillColor=none;align=left;verticalAlign=top;spacingLeft=4;spacingRight=4;overflow=hidden;rotatable=0;points=[];portConstraint=eastwest;part=1;fontSize=12;" vertex="1" connectable="0" parent="CsgqiDto-1mAxlndZmre-247">
          <mxGeometry width="30" height="26" as="geometry"/>
        </mxCell>
        <mxCell id="CsgqiDto-1mAxlndZmre-249" value="image_02" style="shape=partialRectangle;top=0;left=0;right=0;bottom=0;align=left;verticalAlign=top;fillColor=none;spacingLeft=34;spacingRight=4;overflow=hidden;rotatable=0;points=[[0,0.5],[1,0.5]];portConstraint=eastwest;dropTarget=0;fontSize=12;" vertex="1" parent="CsgqiDto-1mAxlndZmre-230">
          <mxGeometry y="260" width="165" height="26" as="geometry"/>
        </mxCell>
        <mxCell id="CsgqiDto-1mAxlndZmre-250" value="" style="shape=partialRectangle;top=0;left=0;bottom=0;fillColor=none;align=left;verticalAlign=top;spacingLeft=4;spacingRight=4;overflow=hidden;rotatable=0;points=[];portConstraint=eastwest;part=1;fontSize=12;" vertex="1" connectable="0" parent="CsgqiDto-1mAxlndZmre-249">
          <mxGeometry width="30" height="26" as="geometry"/>
        </mxCell>
        <mxCell id="CsgqiDto-1mAxlndZmre-251" value="image_03" style="shape=partialRectangle;top=0;left=0;right=0;bottom=0;align=left;verticalAlign=top;fillColor=none;spacingLeft=34;spacingRight=4;overflow=hidden;rotatable=0;points=[[0,0.5],[1,0.5]];portConstraint=eastwest;dropTarget=0;fontSize=12;" vertex="1" parent="CsgqiDto-1mAxlndZmre-230">
          <mxGeometry y="286" width="165" height="26" as="geometry"/>
        </mxCell>
        <mxCell id="CsgqiDto-1mAxlndZmre-252" value="" style="shape=partialRectangle;top=0;left=0;bottom=0;fillColor=none;align=left;verticalAlign=top;spacingLeft=4;spacingRight=4;overflow=hidden;rotatable=0;points=[];portConstraint=eastwest;part=1;fontSize=12;" vertex="1" connectable="0" parent="CsgqiDto-1mAxlndZmre-251">
          <mxGeometry width="30" height="26" as="geometry"/>
        </mxCell>
        <mxCell id="CsgqiDto-1mAxlndZmre-253" value="image_04" style="shape=partialRectangle;top=0;left=0;right=0;bottom=0;align=left;verticalAlign=top;fillColor=none;spacingLeft=34;spacingRight=4;overflow=hidden;rotatable=0;points=[[0,0.5],[1,0.5]];portConstraint=eastwest;dropTarget=0;fontSize=12;" vertex="1" parent="CsgqiDto-1mAxlndZmre-230">
          <mxGeometry y="312" width="165" height="26" as="geometry"/>
        </mxCell>
        <mxCell id="CsgqiDto-1mAxlndZmre-254" value="" style="shape=partialRectangle;top=0;left=0;bottom=0;fillColor=none;align=left;verticalAlign=top;spacingLeft=4;spacingRight=4;overflow=hidden;rotatable=0;points=[];portConstraint=eastwest;part=1;fontSize=12;" vertex="1" connectable="0" parent="CsgqiDto-1mAxlndZmre-253">
          <mxGeometry width="30" height="26" as="geometry"/>
        </mxCell>
        <mxCell id="CsgqiDto-1mAxlndZmre-255" value="image_05" style="shape=partialRectangle;top=0;left=0;right=0;bottom=0;align=left;verticalAlign=top;fillColor=none;spacingLeft=34;spacingRight=4;overflow=hidden;rotatable=0;points=[[0,0.5],[1,0.5]];portConstraint=eastwest;dropTarget=0;fontSize=12;" vertex="1" parent="CsgqiDto-1mAxlndZmre-230">
          <mxGeometry y="338" width="165" height="26" as="geometry"/>
        </mxCell>
        <mxCell id="CsgqiDto-1mAxlndZmre-256" value="" style="shape=partialRectangle;top=0;left=0;bottom=0;fillColor=none;align=left;verticalAlign=top;spacingLeft=4;spacingRight=4;overflow=hidden;rotatable=0;points=[];portConstraint=eastwest;part=1;fontSize=12;" vertex="1" connectable="0" parent="CsgqiDto-1mAxlndZmre-255">
          <mxGeometry width="30" height="26" as="geometry"/>
        </mxCell>
        <mxCell id="CsgqiDto-1mAxlndZmre-257" value="image_06" style="shape=partialRectangle;top=0;left=0;right=0;bottom=0;align=left;verticalAlign=top;fillColor=none;spacingLeft=34;spacingRight=4;overflow=hidden;rotatable=0;points=[[0,0.5],[1,0.5]];portConstraint=eastwest;dropTarget=0;fontSize=12;" vertex="1" parent="CsgqiDto-1mAxlndZmre-230">
          <mxGeometry y="364" width="165" height="26" as="geometry"/>
        </mxCell>
        <mxCell id="CsgqiDto-1mAxlndZmre-258" value="" style="shape=partialRectangle;top=0;left=0;bottom=0;fillColor=none;align=left;verticalAlign=top;spacingLeft=4;spacingRight=4;overflow=hidden;rotatable=0;points=[];portConstraint=eastwest;part=1;fontSize=12;" vertex="1" connectable="0" parent="CsgqiDto-1mAxlndZmre-257">
          <mxGeometry width="30" height="26" as="geometry"/>
        </mxCell>
        <mxCell id="CsgqiDto-1mAxlndZmre-259" value="image_07" style="shape=partialRectangle;top=0;left=0;right=0;bottom=0;align=left;verticalAlign=top;fillColor=none;spacingLeft=34;spacingRight=4;overflow=hidden;rotatable=0;points=[[0,0.5],[1,0.5]];portConstraint=eastwest;dropTarget=0;fontSize=12;" vertex="1" parent="CsgqiDto-1mAxlndZmre-230">
          <mxGeometry y="390" width="165" height="26" as="geometry"/>
        </mxCell>
        <mxCell id="CsgqiDto-1mAxlndZmre-260" value="" style="shape=partialRectangle;top=0;left=0;bottom=0;fillColor=none;align=left;verticalAlign=top;spacingLeft=4;spacingRight=4;overflow=hidden;rotatable=0;points=[];portConstraint=eastwest;part=1;fontSize=12;" vertex="1" connectable="0" parent="CsgqiDto-1mAxlndZmre-259">
          <mxGeometry width="30" height="26" as="geometry"/>
        </mxCell>
        <mxCell id="CsgqiDto-1mAxlndZmre-261" value="image_08" style="shape=partialRectangle;top=0;left=0;right=0;bottom=0;align=left;verticalAlign=top;fillColor=none;spacingLeft=34;spacingRight=4;overflow=hidden;rotatable=0;points=[[0,0.5],[1,0.5]];portConstraint=eastwest;dropTarget=0;fontSize=12;" vertex="1" parent="CsgqiDto-1mAxlndZmre-230">
          <mxGeometry y="416" width="165" height="26" as="geometry"/>
        </mxCell>
        <mxCell id="CsgqiDto-1mAxlndZmre-262" value="" style="shape=partialRectangle;top=0;left=0;bottom=0;fillColor=none;align=left;verticalAlign=top;spacingLeft=4;spacingRight=4;overflow=hidden;rotatable=0;points=[];portConstraint=eastwest;part=1;fontSize=12;" vertex="1" connectable="0" parent="CsgqiDto-1mAxlndZmre-261">
          <mxGeometry width="30" height="26" as="geometry"/>
        </mxCell>
        <mxCell id="CsgqiDto-1mAxlndZmre-263" value="image_09" style="shape=partialRectangle;top=0;left=0;right=0;bottom=0;align=left;verticalAlign=top;fillColor=none;spacingLeft=34;spacingRight=4;overflow=hidden;rotatable=0;points=[[0,0.5],[1,0.5]];portConstraint=eastwest;dropTarget=0;fontSize=12;" vertex="1" parent="CsgqiDto-1mAxlndZmre-230">
          <mxGeometry y="442" width="165" height="26" as="geometry"/>
        </mxCell>
        <mxCell id="CsgqiDto-1mAxlndZmre-264" value="" style="shape=partialRectangle;top=0;left=0;bottom=0;fillColor=none;align=left;verticalAlign=top;spacingLeft=4;spacingRight=4;overflow=hidden;rotatable=0;points=[];portConstraint=eastwest;part=1;fontSize=12;" vertex="1" connectable="0" parent="CsgqiDto-1mAxlndZmre-263">
          <mxGeometry width="30" height="26" as="geometry"/>
        </mxCell>
        <mxCell id="CsgqiDto-1mAxlndZmre-265" value="video_01" style="shape=partialRectangle;top=0;left=0;right=0;bottom=0;align=left;verticalAlign=top;fillColor=none;spacingLeft=34;spacingRight=4;overflow=hidden;rotatable=0;points=[[0,0.5],[1,0.5]];portConstraint=eastwest;dropTarget=0;fontSize=12;" vertex="1" parent="CsgqiDto-1mAxlndZmre-230">
          <mxGeometry y="468" width="165" height="26" as="geometry"/>
        </mxCell>
        <mxCell id="CsgqiDto-1mAxlndZmre-266" value="" style="shape=partialRectangle;top=0;left=0;bottom=0;fillColor=none;align=left;verticalAlign=top;spacingLeft=4;spacingRight=4;overflow=hidden;rotatable=0;points=[];portConstraint=eastwest;part=1;fontSize=12;" vertex="1" connectable="0" parent="CsgqiDto-1mAxlndZmre-265">
          <mxGeometry width="30" height="26" as="geometry"/>
        </mxCell>
        <mxCell id="CsgqiDto-1mAxlndZmre-267" value="hometown_id" style="shape=partialRectangle;top=0;left=0;right=0;bottom=0;align=left;verticalAlign=top;fillColor=none;spacingLeft=34;spacingRight=4;overflow=hidden;rotatable=0;points=[[0,0.5],[1,0.5]];portConstraint=eastwest;dropTarget=0;fontSize=12;" vertex="1" parent="CsgqiDto-1mAxlndZmre-230">
          <mxGeometry y="494" width="165" height="26" as="geometry"/>
        </mxCell>
        <mxCell id="CsgqiDto-1mAxlndZmre-268" value="FK" style="shape=partialRectangle;top=0;left=0;bottom=0;fillColor=none;align=left;verticalAlign=top;spacingLeft=4;spacingRight=4;overflow=hidden;rotatable=0;points=[];portConstraint=eastwest;part=1;fontSize=12;" vertex="1" connectable="0" parent="CsgqiDto-1mAxlndZmre-267">
          <mxGeometry width="30" height="26" as="geometry"/>
        </mxCell>
        <mxCell id="CsgqiDto-1mAxlndZmre-269" value="hometown_name" style="shape=partialRectangle;top=0;left=0;right=0;bottom=0;align=left;verticalAlign=top;fillColor=none;spacingLeft=34;spacingRight=4;overflow=hidden;rotatable=0;points=[[0,0.5],[1,0.5]];portConstraint=eastwest;dropTarget=0;fontSize=12;" vertex="1" parent="CsgqiDto-1mAxlndZmre-230">
          <mxGeometry y="520" width="165" height="26" as="geometry"/>
        </mxCell>
        <mxCell id="CsgqiDto-1mAxlndZmre-270" value="" style="shape=partialRectangle;top=0;left=0;bottom=0;fillColor=none;align=left;verticalAlign=top;spacingLeft=4;spacingRight=4;overflow=hidden;rotatable=0;points=[];portConstraint=eastwest;part=1;fontSize=12;" vertex="1" connectable="0" parent="CsgqiDto-1mAxlndZmre-269">
          <mxGeometry width="30" height="26" as="geometry"/>
        </mxCell>
        <mxCell id="CsgqiDto-1mAxlndZmre-271" value="store" style="shape=partialRectangle;top=0;left=0;right=0;bottom=0;align=left;verticalAlign=top;fillColor=none;spacingLeft=34;spacingRight=4;overflow=hidden;rotatable=0;points=[[0,0.5],[1,0.5]];portConstraint=eastwest;dropTarget=0;fontSize=12;" vertex="1" parent="CsgqiDto-1mAxlndZmre-230">
          <mxGeometry y="546" width="165" height="26" as="geometry"/>
        </mxCell>
        <mxCell id="CsgqiDto-1mAxlndZmre-272" value="" style="shape=partialRectangle;top=0;left=0;bottom=0;fillColor=none;align=left;verticalAlign=top;spacingLeft=4;spacingRight=4;overflow=hidden;rotatable=0;points=[];portConstraint=eastwest;part=1;fontSize=12;" vertex="1" connectable="0" parent="CsgqiDto-1mAxlndZmre-271">
          <mxGeometry width="30" height="26" as="geometry"/>
        </mxCell>
        <mxCell id="CsgqiDto-1mAxlndZmre-273" value="store_url" style="shape=partialRectangle;top=0;left=0;right=0;bottom=0;align=left;verticalAlign=top;fillColor=none;spacingLeft=34;spacingRight=4;overflow=hidden;rotatable=0;points=[[0,0.5],[1,0.5]];portConstraint=eastwest;dropTarget=0;fontSize=12;" vertex="1" parent="CsgqiDto-1mAxlndZmre-230">
          <mxGeometry y="572" width="165" height="26" as="geometry"/>
        </mxCell>
        <mxCell id="CsgqiDto-1mAxlndZmre-274" value="" style="shape=partialRectangle;top=0;left=0;bottom=0;fillColor=none;align=left;verticalAlign=top;spacingLeft=4;spacingRight=4;overflow=hidden;rotatable=0;points=[];portConstraint=eastwest;part=1;fontSize=12;" vertex="1" connectable="0" parent="CsgqiDto-1mAxlndZmre-273">
          <mxGeometry width="30" height="26" as="geometry"/>
        </mxCell>
        <mxCell id="CsgqiDto-1mAxlndZmre-275" value="endorse_cnt" style="shape=partialRectangle;top=0;left=0;right=0;bottom=0;align=left;verticalAlign=top;fillColor=none;spacingLeft=34;spacingRight=4;overflow=hidden;rotatable=0;points=[[0,0.5],[1,0.5]];portConstraint=eastwest;dropTarget=0;fontSize=12;" vertex="1" parent="CsgqiDto-1mAxlndZmre-230">
          <mxGeometry y="598" width="165" height="26" as="geometry"/>
        </mxCell>
        <mxCell id="CsgqiDto-1mAxlndZmre-276" value="" style="shape=partialRectangle;top=0;left=0;bottom=0;fillColor=none;align=left;verticalAlign=top;spacingLeft=4;spacingRight=4;overflow=hidden;rotatable=0;points=[];portConstraint=eastwest;part=1;fontSize=12;" vertex="1" connectable="0" parent="CsgqiDto-1mAxlndZmre-275">
          <mxGeometry width="30" height="26" as="geometry"/>
        </mxCell>
        <mxCell id="CsgqiDto-1mAxlndZmre-277" value="comment_cnt" style="shape=partialRectangle;top=0;left=0;right=0;bottom=0;align=left;verticalAlign=top;fillColor=none;spacingLeft=34;spacingRight=4;overflow=hidden;rotatable=0;points=[[0,0.5],[1,0.5]];portConstraint=eastwest;dropTarget=0;fontSize=12;" vertex="1" parent="CsgqiDto-1mAxlndZmre-230">
          <mxGeometry y="624" width="165" height="26" as="geometry"/>
        </mxCell>
        <mxCell id="CsgqiDto-1mAxlndZmre-278" value="" style="shape=partialRectangle;top=0;left=0;bottom=0;fillColor=none;align=left;verticalAlign=top;spacingLeft=4;spacingRight=4;overflow=hidden;rotatable=0;points=[];portConstraint=eastwest;part=1;fontSize=12;" vertex="1" connectable="0" parent="CsgqiDto-1mAxlndZmre-277">
          <mxGeometry width="30" height="26" as="geometry"/>
        </mxCell>
        <mxCell id="CsgqiDto-1mAxlndZmre-279" value="share_cnt" style="shape=partialRectangle;top=0;left=0;right=0;bottom=0;align=left;verticalAlign=top;fillColor=none;spacingLeft=34;spacingRight=4;overflow=hidden;rotatable=0;points=[[0,0.5],[1,0.5]];portConstraint=eastwest;dropTarget=0;fontSize=12;" vertex="1" parent="CsgqiDto-1mAxlndZmre-230">
          <mxGeometry y="650" width="165" height="26" as="geometry"/>
        </mxCell>
        <mxCell id="CsgqiDto-1mAxlndZmre-280" value="" style="shape=partialRectangle;top=0;left=0;bottom=0;fillColor=none;align=left;verticalAlign=top;spacingLeft=4;spacingRight=4;overflow=hidden;rotatable=0;points=[];portConstraint=eastwest;part=1;fontSize=12;" vertex="1" connectable="0" parent="CsgqiDto-1mAxlndZmre-279">
          <mxGeometry width="30" height="26" as="geometry"/>
        </mxCell>
        <mxCell id="CsgqiDto-1mAxlndZmre-281" value="status" style="shape=partialRectangle;top=0;left=0;right=0;bottom=0;align=left;verticalAlign=top;fillColor=none;spacingLeft=34;spacingRight=4;overflow=hidden;rotatable=0;points=[[0,0.5],[1,0.5]];portConstraint=eastwest;dropTarget=0;fontSize=12;" vertex="1" parent="CsgqiDto-1mAxlndZmre-230">
          <mxGeometry y="676" width="165" height="26" as="geometry"/>
        </mxCell>
        <mxCell id="CsgqiDto-1mAxlndZmre-282" value="" style="shape=partialRectangle;top=0;left=0;bottom=0;fillColor=none;align=left;verticalAlign=top;spacingLeft=4;spacingRight=4;overflow=hidden;rotatable=0;points=[];portConstraint=eastwest;part=1;fontSize=12;" vertex="1" connectable="0" parent="CsgqiDto-1mAxlndZmre-281">
          <mxGeometry width="30" height="26" as="geometry"/>
        </mxCell>
        <mxCell id="CsgqiDto-1mAxlndZmre-283" value="" style="edgeStyle=entityRelationEdgeStyle;fontSize=12;html=1;endArrow=ERzeroToMany;endFill=1;exitX=1;exitY=0.5;exitDx=0;exitDy=0;entryX=0;entryY=0.5;entryDx=0;entryDy=0;" edge="1" parent="1" source="CsgqiDto-1mAxlndZmre-169" target="CsgqiDto-1mAxlndZmre-237">
          <mxGeometry width="100" height="100" relative="1" as="geometry">
            <mxPoint x="490" y="1709" as="sourcePoint"/>
            <mxPoint x="558" y="2010" as="targetPoint"/>
          </mxGeometry>
        </mxCell>
        <mxCell id="CsgqiDto-1mAxlndZmre-284" value="one_moment_interact" style="swimlane;fontStyle=0;childLayout=stackLayout;horizontal=1;startSize=26;fillColor=#e0e0e0;horizontalStack=0;resizeParent=1;resizeParentMax=0;resizeLast=0;collapsible=1;marginBottom=0;swimlaneFillColor=#ffffff;align=center;fontSize=14;" vertex="1" parent="1">
          <mxGeometry x="575" y="1408" width="165" height="234" as="geometry"/>
        </mxCell>
        <mxCell id="CsgqiDto-1mAxlndZmre-285" value="id" style="shape=partialRectangle;top=0;left=0;right=0;bottom=1;align=left;verticalAlign=top;fillColor=none;spacingLeft=34;spacingRight=4;overflow=hidden;rotatable=0;points=[[0,0.5],[1,0.5]];portConstraint=eastwest;dropTarget=0;fontSize=12;" vertex="1" parent="CsgqiDto-1mAxlndZmre-284">
          <mxGeometry y="26" width="165" height="26" as="geometry"/>
        </mxCell>
        <mxCell id="CsgqiDto-1mAxlndZmre-286" value="PK" style="shape=partialRectangle;top=0;left=0;bottom=0;fillColor=none;align=left;verticalAlign=top;spacingLeft=4;spacingRight=4;overflow=hidden;rotatable=0;points=[];portConstraint=eastwest;part=1;fontSize=12;" vertex="1" connectable="0" parent="CsgqiDto-1mAxlndZmre-285">
          <mxGeometry width="30" height="26" as="geometry"/>
        </mxCell>
        <mxCell id="CsgqiDto-1mAxlndZmre-287" value="gmt_create" style="shape=partialRectangle;top=0;left=0;right=0;bottom=0;align=left;verticalAlign=top;fillColor=none;spacingLeft=34;spacingRight=4;overflow=hidden;rotatable=0;points=[[0,0.5],[1,0.5]];portConstraint=eastwest;dropTarget=0;fontSize=12;" vertex="1" parent="CsgqiDto-1mAxlndZmre-284">
          <mxGeometry y="52" width="165" height="26" as="geometry"/>
        </mxCell>
        <mxCell id="CsgqiDto-1mAxlndZmre-288" value="" style="shape=partialRectangle;top=0;left=0;bottom=0;fillColor=none;align=left;verticalAlign=top;spacingLeft=4;spacingRight=4;overflow=hidden;rotatable=0;points=[];portConstraint=eastwest;part=1;fontSize=12;" vertex="1" connectable="0" parent="CsgqiDto-1mAxlndZmre-287">
          <mxGeometry width="30" height="26" as="geometry"/>
        </mxCell>
        <mxCell id="CsgqiDto-1mAxlndZmre-289" value="gmt_modified" style="shape=partialRectangle;top=0;left=0;right=0;bottom=0;align=left;verticalAlign=top;fillColor=none;spacingLeft=34;spacingRight=4;overflow=hidden;rotatable=0;points=[[0,0.5],[1,0.5]];portConstraint=eastwest;dropTarget=0;fontSize=12;" vertex="1" parent="CsgqiDto-1mAxlndZmre-284">
          <mxGeometry y="78" width="165" height="26" as="geometry"/>
        </mxCell>
        <mxCell id="CsgqiDto-1mAxlndZmre-290" value="" style="shape=partialRectangle;top=0;left=0;bottom=0;fillColor=none;align=left;verticalAlign=top;spacingLeft=4;spacingRight=4;overflow=hidden;rotatable=0;points=[];portConstraint=eastwest;part=1;fontSize=12;" vertex="1" connectable="0" parent="CsgqiDto-1mAxlndZmre-289">
          <mxGeometry width="30" height="26" as="geometry"/>
        </mxCell>
        <mxCell id="CsgqiDto-1mAxlndZmre-291" value="user_id" style="shape=partialRectangle;top=0;left=0;right=0;bottom=0;align=left;verticalAlign=top;fillColor=none;spacingLeft=34;spacingRight=4;overflow=hidden;rotatable=0;points=[[0,0.5],[1,0.5]];portConstraint=eastwest;dropTarget=0;fontSize=12;" vertex="1" parent="CsgqiDto-1mAxlndZmre-284">
          <mxGeometry y="104" width="165" height="26" as="geometry"/>
        </mxCell>
        <mxCell id="CsgqiDto-1mAxlndZmre-292" value="FK" style="shape=partialRectangle;top=0;left=0;bottom=0;fillColor=none;align=left;verticalAlign=top;spacingLeft=4;spacingRight=4;overflow=hidden;rotatable=0;points=[];portConstraint=eastwest;part=1;fontSize=12;" vertex="1" connectable="0" parent="CsgqiDto-1mAxlndZmre-291">
          <mxGeometry width="30" height="26" as="geometry"/>
        </mxCell>
        <mxCell id="CsgqiDto-1mAxlndZmre-293" value="moment_id" style="shape=partialRectangle;top=0;left=0;right=0;bottom=0;align=left;verticalAlign=top;fillColor=none;spacingLeft=34;spacingRight=4;overflow=hidden;rotatable=0;points=[[0,0.5],[1,0.5]];portConstraint=eastwest;dropTarget=0;fontSize=12;" vertex="1" parent="CsgqiDto-1mAxlndZmre-284">
          <mxGeometry y="130" width="165" height="26" as="geometry"/>
        </mxCell>
        <mxCell id="CsgqiDto-1mAxlndZmre-294" value="FK" style="shape=partialRectangle;top=0;left=0;bottom=0;fillColor=none;align=left;verticalAlign=top;spacingLeft=4;spacingRight=4;overflow=hidden;rotatable=0;points=[];portConstraint=eastwest;part=1;fontSize=12;" vertex="1" connectable="0" parent="CsgqiDto-1mAxlndZmre-293">
          <mxGeometry width="30" height="26" as="geometry"/>
        </mxCell>
        <mxCell id="CsgqiDto-1mAxlndZmre-295" value="content" style="shape=partialRectangle;top=0;left=0;right=0;bottom=0;align=left;verticalAlign=top;fillColor=none;spacingLeft=34;spacingRight=4;overflow=hidden;rotatable=0;points=[[0,0.5],[1,0.5]];portConstraint=eastwest;dropTarget=0;fontSize=12;" vertex="1" parent="CsgqiDto-1mAxlndZmre-284">
          <mxGeometry y="156" width="165" height="26" as="geometry"/>
        </mxCell>
        <mxCell id="CsgqiDto-1mAxlndZmre-296" value="" style="shape=partialRectangle;top=0;left=0;bottom=0;fillColor=none;align=left;verticalAlign=top;spacingLeft=4;spacingRight=4;overflow=hidden;rotatable=0;points=[];portConstraint=eastwest;part=1;fontSize=12;" vertex="1" connectable="0" parent="CsgqiDto-1mAxlndZmre-295">
          <mxGeometry width="30" height="26" as="geometry"/>
        </mxCell>
        <mxCell id="CsgqiDto-1mAxlndZmre-297" value="type" style="shape=partialRectangle;top=0;left=0;right=0;bottom=0;align=left;verticalAlign=top;fillColor=none;spacingLeft=34;spacingRight=4;overflow=hidden;rotatable=0;points=[[0,0.5],[1,0.5]];portConstraint=eastwest;dropTarget=0;fontSize=12;" vertex="1" parent="CsgqiDto-1mAxlndZmre-284">
          <mxGeometry y="182" width="165" height="26" as="geometry"/>
        </mxCell>
        <mxCell id="CsgqiDto-1mAxlndZmre-298" value="" style="shape=partialRectangle;top=0;left=0;bottom=0;fillColor=none;align=left;verticalAlign=top;spacingLeft=4;spacingRight=4;overflow=hidden;rotatable=0;points=[];portConstraint=eastwest;part=1;fontSize=12;" vertex="1" connectable="0" parent="CsgqiDto-1mAxlndZmre-297">
          <mxGeometry width="30" height="26" as="geometry"/>
        </mxCell>
        <mxCell id="CsgqiDto-1mAxlndZmre-299" value="status" style="shape=partialRectangle;top=0;left=0;right=0;bottom=0;align=left;verticalAlign=top;fillColor=none;spacingLeft=34;spacingRight=4;overflow=hidden;rotatable=0;points=[[0,0.5],[1,0.5]];portConstraint=eastwest;dropTarget=0;fontSize=12;" vertex="1" parent="CsgqiDto-1mAxlndZmre-284">
          <mxGeometry y="208" width="165" height="26" as="geometry"/>
        </mxCell>
        <mxCell id="CsgqiDto-1mAxlndZmre-300" value="" style="shape=partialRectangle;top=0;left=0;bottom=0;fillColor=none;align=left;verticalAlign=top;spacingLeft=4;spacingRight=4;overflow=hidden;rotatable=0;points=[];portConstraint=eastwest;part=1;fontSize=12;" vertex="1" connectable="0" parent="CsgqiDto-1mAxlndZmre-299">
          <mxGeometry width="30" height="26" as="geometry"/>
        </mxCell>
        <mxCell id="CsgqiDto-1mAxlndZmre-301" value="" style="edgeStyle=entityRelationEdgeStyle;fontSize=12;html=1;endArrow=ERzeroToMany;endFill=1;exitX=1;exitY=0.5;exitDx=0;exitDy=0;" edge="1" parent="1" source="CsgqiDto-1mAxlndZmre-231" target="CsgqiDto-1mAxlndZmre-293">
          <mxGeometry width="100" height="100" relative="1" as="geometry">
            <mxPoint x="750" y="1840" as="sourcePoint"/>
            <mxPoint x="840" y="1918" as="targetPoint"/>
          </mxGeometry>
        </mxCell>
        <mxCell id="CsgqiDto-1mAxlndZmre-302" value="one_topic" style="swimlane;fontStyle=0;childLayout=stackLayout;horizontal=1;startSize=26;fillColor=#e0e0e0;horizontalStack=0;resizeParent=1;resizeParentMax=0;resizeLast=0;collapsible=1;marginBottom=0;swimlaneFillColor=#ffffff;align=center;fontSize=14;" vertex="1" parent="1">
          <mxGeometry x="80" y="2120" width="165" height="234" as="geometry"/>
        </mxCell>
        <mxCell id="CsgqiDto-1mAxlndZmre-303" value="id" style="shape=partialRectangle;top=0;left=0;right=0;bottom=1;align=left;verticalAlign=top;fillColor=none;spacingLeft=34;spacingRight=4;overflow=hidden;rotatable=0;points=[[0,0.5],[1,0.5]];portConstraint=eastwest;dropTarget=0;fontSize=12;" vertex="1" parent="CsgqiDto-1mAxlndZmre-302">
          <mxGeometry y="26" width="165" height="26" as="geometry"/>
        </mxCell>
        <mxCell id="CsgqiDto-1mAxlndZmre-304" value="PK" style="shape=partialRectangle;top=0;left=0;bottom=0;fillColor=none;align=left;verticalAlign=top;spacingLeft=4;spacingRight=4;overflow=hidden;rotatable=0;points=[];portConstraint=eastwest;part=1;fontSize=12;" vertex="1" connectable="0" parent="CsgqiDto-1mAxlndZmre-303">
          <mxGeometry width="30" height="26" as="geometry"/>
        </mxCell>
        <mxCell id="CsgqiDto-1mAxlndZmre-305" value="gmt_create" style="shape=partialRectangle;top=0;left=0;right=0;bottom=0;align=left;verticalAlign=top;fillColor=none;spacingLeft=34;spacingRight=4;overflow=hidden;rotatable=0;points=[[0,0.5],[1,0.5]];portConstraint=eastwest;dropTarget=0;fontSize=12;" vertex="1" parent="CsgqiDto-1mAxlndZmre-302">
          <mxGeometry y="52" width="165" height="26" as="geometry"/>
        </mxCell>
        <mxCell id="CsgqiDto-1mAxlndZmre-306" value="" style="shape=partialRectangle;top=0;left=0;bottom=0;fillColor=none;align=left;verticalAlign=top;spacingLeft=4;spacingRight=4;overflow=hidden;rotatable=0;points=[];portConstraint=eastwest;part=1;fontSize=12;" vertex="1" connectable="0" parent="CsgqiDto-1mAxlndZmre-305">
          <mxGeometry width="30" height="26" as="geometry"/>
        </mxCell>
        <mxCell id="CsgqiDto-1mAxlndZmre-307" value="gmt_modified" style="shape=partialRectangle;top=0;left=0;right=0;bottom=0;align=left;verticalAlign=top;fillColor=none;spacingLeft=34;spacingRight=4;overflow=hidden;rotatable=0;points=[[0,0.5],[1,0.5]];portConstraint=eastwest;dropTarget=0;fontSize=12;" vertex="1" parent="CsgqiDto-1mAxlndZmre-302">
          <mxGeometry y="78" width="165" height="26" as="geometry"/>
        </mxCell>
        <mxCell id="CsgqiDto-1mAxlndZmre-308" value="" style="shape=partialRectangle;top=0;left=0;bottom=0;fillColor=none;align=left;verticalAlign=top;spacingLeft=4;spacingRight=4;overflow=hidden;rotatable=0;points=[];portConstraint=eastwest;part=1;fontSize=12;" vertex="1" connectable="0" parent="CsgqiDto-1mAxlndZmre-307">
          <mxGeometry width="30" height="26" as="geometry"/>
        </mxCell>
        <mxCell id="CsgqiDto-1mAxlndZmre-309" value="user_id" style="shape=partialRectangle;top=0;left=0;right=0;bottom=0;align=left;verticalAlign=top;fillColor=none;spacingLeft=34;spacingRight=4;overflow=hidden;rotatable=0;points=[[0,0.5],[1,0.5]];portConstraint=eastwest;dropTarget=0;fontSize=12;" vertex="1" parent="CsgqiDto-1mAxlndZmre-302">
          <mxGeometry y="104" width="165" height="26" as="geometry"/>
        </mxCell>
        <mxCell id="CsgqiDto-1mAxlndZmre-310" value="FK" style="shape=partialRectangle;top=0;left=0;bottom=0;fillColor=none;align=left;verticalAlign=top;spacingLeft=4;spacingRight=4;overflow=hidden;rotatable=0;points=[];portConstraint=eastwest;part=1;fontSize=12;" vertex="1" connectable="0" parent="CsgqiDto-1mAxlndZmre-309">
          <mxGeometry width="30" height="26" as="geometry"/>
        </mxCell>
        <mxCell id="CsgqiDto-1mAxlndZmre-311" value="name" style="shape=partialRectangle;top=0;left=0;right=0;bottom=0;align=left;verticalAlign=top;fillColor=none;spacingLeft=34;spacingRight=4;overflow=hidden;rotatable=0;points=[[0,0.5],[1,0.5]];portConstraint=eastwest;dropTarget=0;fontSize=12;" vertex="1" parent="CsgqiDto-1mAxlndZmre-302">
          <mxGeometry y="130" width="165" height="26" as="geometry"/>
        </mxCell>
        <mxCell id="CsgqiDto-1mAxlndZmre-312" value="" style="shape=partialRectangle;top=0;left=0;bottom=0;fillColor=none;align=left;verticalAlign=top;spacingLeft=4;spacingRight=4;overflow=hidden;rotatable=0;points=[];portConstraint=eastwest;part=1;fontSize=12;" vertex="1" connectable="0" parent="CsgqiDto-1mAxlndZmre-311">
          <mxGeometry width="30" height="26" as="geometry"/>
        </mxCell>
        <mxCell id="CsgqiDto-1mAxlndZmre-313" value="moment_cnt" style="shape=partialRectangle;top=0;left=0;right=0;bottom=0;align=left;verticalAlign=top;fillColor=none;spacingLeft=34;spacingRight=4;overflow=hidden;rotatable=0;points=[[0,0.5],[1,0.5]];portConstraint=eastwest;dropTarget=0;fontSize=12;" vertex="1" parent="CsgqiDto-1mAxlndZmre-302">
          <mxGeometry y="156" width="165" height="26" as="geometry"/>
        </mxCell>
        <mxCell id="CsgqiDto-1mAxlndZmre-314" value="" style="shape=partialRectangle;top=0;left=0;bottom=0;fillColor=none;align=left;verticalAlign=top;spacingLeft=4;spacingRight=4;overflow=hidden;rotatable=0;points=[];portConstraint=eastwest;part=1;fontSize=12;" vertex="1" connectable="0" parent="CsgqiDto-1mAxlndZmre-313">
          <mxGeometry width="30" height="26" as="geometry"/>
        </mxCell>
        <mxCell id="CsgqiDto-1mAxlndZmre-315" value="user_cnt" style="shape=partialRectangle;top=0;left=0;right=0;bottom=0;align=left;verticalAlign=top;fillColor=none;spacingLeft=34;spacingRight=4;overflow=hidden;rotatable=0;points=[[0,0.5],[1,0.5]];portConstraint=eastwest;dropTarget=0;fontSize=12;" vertex="1" parent="CsgqiDto-1mAxlndZmre-302">
          <mxGeometry y="182" width="165" height="26" as="geometry"/>
        </mxCell>
        <mxCell id="CsgqiDto-1mAxlndZmre-316" value="" style="shape=partialRectangle;top=0;left=0;bottom=0;fillColor=none;align=left;verticalAlign=top;spacingLeft=4;spacingRight=4;overflow=hidden;rotatable=0;points=[];portConstraint=eastwest;part=1;fontSize=12;" vertex="1" connectable="0" parent="CsgqiDto-1mAxlndZmre-315">
          <mxGeometry width="30" height="26" as="geometry"/>
        </mxCell>
        <mxCell id="CsgqiDto-1mAxlndZmre-317" value="status" style="shape=partialRectangle;top=0;left=0;right=0;bottom=0;align=left;verticalAlign=top;fillColor=none;spacingLeft=34;spacingRight=4;overflow=hidden;rotatable=0;points=[[0,0.5],[1,0.5]];portConstraint=eastwest;dropTarget=0;fontSize=12;" vertex="1" parent="CsgqiDto-1mAxlndZmre-302">
          <mxGeometry y="208" width="165" height="26" as="geometry"/>
        </mxCell>
        <mxCell id="CsgqiDto-1mAxlndZmre-318" value="" style="shape=partialRectangle;top=0;left=0;bottom=0;fillColor=none;align=left;verticalAlign=top;spacingLeft=4;spacingRight=4;overflow=hidden;rotatable=0;points=[];portConstraint=eastwest;part=1;fontSize=12;" vertex="1" connectable="0" parent="CsgqiDto-1mAxlndZmre-317">
          <mxGeometry width="30" height="26" as="geometry"/>
        </mxCell>
        <mxCell id="CsgqiDto-1mAxlndZmre-319" value="one_user_topic" style="swimlane;fontStyle=0;childLayout=stackLayout;horizontal=1;startSize=26;fillColor=#e0e0e0;horizontalStack=0;resizeParent=1;resizeParentMax=0;resizeLast=0;collapsible=1;marginBottom=0;swimlaneFillColor=#ffffff;align=center;fontSize=14;" vertex="1" parent="1">
          <mxGeometry x="315" y="2120" width="165" height="156" as="geometry"/>
        </mxCell>
        <mxCell id="CsgqiDto-1mAxlndZmre-320" value="id" style="shape=partialRectangle;top=0;left=0;right=0;bottom=1;align=left;verticalAlign=top;fillColor=none;spacingLeft=34;spacingRight=4;overflow=hidden;rotatable=0;points=[[0,0.5],[1,0.5]];portConstraint=eastwest;dropTarget=0;fontSize=12;" vertex="1" parent="CsgqiDto-1mAxlndZmre-319">
          <mxGeometry y="26" width="165" height="26" as="geometry"/>
        </mxCell>
        <mxCell id="CsgqiDto-1mAxlndZmre-321" value="PK" style="shape=partialRectangle;top=0;left=0;bottom=0;fillColor=none;align=left;verticalAlign=top;spacingLeft=4;spacingRight=4;overflow=hidden;rotatable=0;points=[];portConstraint=eastwest;part=1;fontSize=12;" vertex="1" connectable="0" parent="CsgqiDto-1mAxlndZmre-320">
          <mxGeometry width="30" height="26" as="geometry"/>
        </mxCell>
        <mxCell id="CsgqiDto-1mAxlndZmre-322" value="gmt_create" style="shape=partialRectangle;top=0;left=0;right=0;bottom=0;align=left;verticalAlign=top;fillColor=none;spacingLeft=34;spacingRight=4;overflow=hidden;rotatable=0;points=[[0,0.5],[1,0.5]];portConstraint=eastwest;dropTarget=0;fontSize=12;" vertex="1" parent="CsgqiDto-1mAxlndZmre-319">
          <mxGeometry y="52" width="165" height="26" as="geometry"/>
        </mxCell>
        <mxCell id="CsgqiDto-1mAxlndZmre-323" value="" style="shape=partialRectangle;top=0;left=0;bottom=0;fillColor=none;align=left;verticalAlign=top;spacingLeft=4;spacingRight=4;overflow=hidden;rotatable=0;points=[];portConstraint=eastwest;part=1;fontSize=12;" vertex="1" connectable="0" parent="CsgqiDto-1mAxlndZmre-322">
          <mxGeometry width="30" height="26" as="geometry"/>
        </mxCell>
        <mxCell id="CsgqiDto-1mAxlndZmre-324" value="gmt_modified" style="shape=partialRectangle;top=0;left=0;right=0;bottom=0;align=left;verticalAlign=top;fillColor=none;spacingLeft=34;spacingRight=4;overflow=hidden;rotatable=0;points=[[0,0.5],[1,0.5]];portConstraint=eastwest;dropTarget=0;fontSize=12;" vertex="1" parent="CsgqiDto-1mAxlndZmre-319">
          <mxGeometry y="78" width="165" height="26" as="geometry"/>
        </mxCell>
        <mxCell id="CsgqiDto-1mAxlndZmre-325" value="" style="shape=partialRectangle;top=0;left=0;bottom=0;fillColor=none;align=left;verticalAlign=top;spacingLeft=4;spacingRight=4;overflow=hidden;rotatable=0;points=[];portConstraint=eastwest;part=1;fontSize=12;" vertex="1" connectable="0" parent="CsgqiDto-1mAxlndZmre-324">
          <mxGeometry width="30" height="26" as="geometry"/>
        </mxCell>
        <mxCell id="CsgqiDto-1mAxlndZmre-326" value="topic_id" style="shape=partialRectangle;top=0;left=0;right=0;bottom=0;align=left;verticalAlign=top;fillColor=none;spacingLeft=34;spacingRight=4;overflow=hidden;rotatable=0;points=[[0,0.5],[1,0.5]];portConstraint=eastwest;dropTarget=0;fontSize=12;" vertex="1" parent="CsgqiDto-1mAxlndZmre-319">
          <mxGeometry y="104" width="165" height="26" as="geometry"/>
        </mxCell>
        <mxCell id="CsgqiDto-1mAxlndZmre-327" value="FK" style="shape=partialRectangle;top=0;left=0;bottom=0;fillColor=none;align=left;verticalAlign=top;spacingLeft=4;spacingRight=4;overflow=hidden;rotatable=0;points=[];portConstraint=eastwest;part=1;fontSize=12;" vertex="1" connectable="0" parent="CsgqiDto-1mAxlndZmre-326">
          <mxGeometry width="30" height="26" as="geometry"/>
        </mxCell>
        <mxCell id="CsgqiDto-1mAxlndZmre-328" value="user_id" style="shape=partialRectangle;top=0;left=0;right=0;bottom=0;align=left;verticalAlign=top;fillColor=none;spacingLeft=34;spacingRight=4;overflow=hidden;rotatable=0;points=[[0,0.5],[1,0.5]];portConstraint=eastwest;dropTarget=0;fontSize=12;" vertex="1" parent="CsgqiDto-1mAxlndZmre-319">
          <mxGeometry y="130" width="165" height="26" as="geometry"/>
        </mxCell>
        <mxCell id="CsgqiDto-1mAxlndZmre-329" value="FK" style="shape=partialRectangle;top=0;left=0;bottom=0;fillColor=none;align=left;verticalAlign=top;spacingLeft=4;spacingRight=4;overflow=hidden;rotatable=0;points=[];portConstraint=eastwest;part=1;fontSize=12;" vertex="1" connectable="0" parent="CsgqiDto-1mAxlndZmre-328">
          <mxGeometry width="30" height="26" as="geometry"/>
        </mxCell>
        <mxCell id="CsgqiDto-1mAxlndZmre-330" value="" style="edgeStyle=entityRelationEdgeStyle;fontSize=12;html=1;endArrow=ERzeroToMany;endFill=1;" edge="1" parent="1" source="CsgqiDto-1mAxlndZmre-169" target="CsgqiDto-1mAxlndZmre-309">
          <mxGeometry width="100" height="100" relative="1" as="geometry">
            <mxPoint x="250" y="1990" as="sourcePoint"/>
            <mxPoint x="310" y="2170" as="targetPoint"/>
          </mxGeometry>
        </mxCell>
        <mxCell id="CsgqiDto-1mAxlndZmre-331" value="" style="edgeStyle=entityRelationEdgeStyle;fontSize=12;html=1;endArrow=ERzeroToMany;endFill=1;exitX=1;exitY=0.5;exitDx=0;exitDy=0;entryX=0;entryY=0.5;entryDx=0;entryDy=0;" edge="1" parent="1" source="CsgqiDto-1mAxlndZmre-303" target="CsgqiDto-1mAxlndZmre-326">
          <mxGeometry width="100" height="100" relative="1" as="geometry">
            <mxPoint x="230" y="1970" as="sourcePoint"/>
            <mxPoint x="297.5" y="2230" as="targetPoint"/>
          </mxGeometry>
        </mxCell>
        <mxCell id="CsgqiDto-1mAxlndZmre-332" value="" style="edgeStyle=entityRelationEdgeStyle;fontSize=12;html=1;endArrow=ERzeroToMany;endFill=1;exitX=1;exitY=0.5;exitDx=0;exitDy=0;entryX=0;entryY=0.5;entryDx=0;entryDy=0;" edge="1" parent="1" source="CsgqiDto-1mAxlndZmre-320" target="CsgqiDto-1mAxlndZmre-239">
          <mxGeometry width="100" height="100" relative="1" as="geometry">
            <mxPoint x="495" y="2159" as="sourcePoint"/>
            <mxPoint x="565" y="2237" as="targetPoint"/>
          </mxGeometry>
        </mxCell>
      </root>
    </mxGraphModel>
  </diagram>
</mxfile>
